PathFileType	4	(X/Y/Z)	/Users/itak/Documents/Research/Walk-IL/dataset/trc/00413_00012.trc
DataRate	CameraRate	NumFrames	NumMarkers	Units	OrigDataRate	OrigDataStartFrame	OrigNumFrames
100.000000	100.000000	4	53	mm	100.000000	144	576
Frame#	Time	RPSI			LPSI			L3			STRN			T10			C7			CLAV			RBAK			LBAK			LSHO			LUPA			LAEL			LAOL			LWTS			LWPS			LFRA			LIFD			LHPS			LHTS			RSHO			RUPA			RAEL			RAOL			RWTS			RWPS			RFRA			RIFD			RHTS			RHPS			RBHD			LFHD			RFHD			LBHD			LHIP			RHIP			RASI			LASI			LKNE			LTHI			LANK			LTIP			LTOE			LMT1			LMT5			LHEE			RKNE			RTHI			RANK			RTIP			RTOE			RMT1			RMT5			RHEE			
		X1	Y1	Z1	X2	Y2	Z2	X3	Y3	Z3	X4	Y4	Z4	X5	Y5	Z5	X6	Y6	Z6	X7	Y7	Z7	X8	Y8	Z8	X9	Y9	Z9	X10	Y10	Z10	X11	Y11	Z11	X12	Y12	Z12	X13	Y13	Z13	X14	Y14	Z14	X15	Y15	Z15	X16	Y16	Z16	X17	Y17	Z17	X18	Y18	Z18	X19	Y19	Z19	X20	Y20	Z20	X21	Y21	Z21	X22	Y22	Z22	X23	Y23	Z23	X24	Y24	Z24	X25	Y25	Z25	X26	Y26	Z26	X27	Y27	Z27	X28	Y28	Z28	X29	Y29	Z29	X30	Y30	Z30	X31	Y31	Z31	X32	Y32	Z32	X33	Y33	Z33	X34	Y34	Z34	X35	Y35	Z35	X36	Y36	Z36	X37	Y37	Z37	X38	Y38	Z38	X39	Y39	Z39	X40	Y40	Z40	X41	Y41	Z41	X42	Y42	Z42	X43	Y43	Z43	X44	Y44	Z44	X45	Y45	Z45	X46	Y46	Z46	X47	Y47	Z47	X48	Y48	Z48	X49	Y49	Z49	X50	Y50	Z50	X51	Y51	Z51	X52	Y52	Z52	X53	Y53	Z53	

145	1.44	-849.0426025390625	988.4171142578125	620.5260620117188	-846.880615234375	984.1530151367188	489.011474609375	-846.1161499023438	1058.881103515625	555.6339111328125	-607.1787109375	1212.498901367188	579.1074829101562	-847.197509765625	1159.062622070312	551.0825805664062	-816.4281005859375	1409.336303710938	545.6666259765625	-660.2271118164062	1331.722412109375	573.402099609375	-863.1365356445312	1262.055541992188	607.496826171875	-811.6011352539062	1372.193603515625	439.2908020019531	-717.1022338867188	1390.22412109375	404.4393615722656	-718.19921875	1274.631591796875	328.9864807128906	-677.5167846679688	1078.106079101562	315.140380859375	-750.2412109375	1053.72412109375	351.0838317871094	-601.4158935546875	866.8614501953125	398.6454162597656	-616.144287109375	852.5020141601562	318.8525085449219	-651.2304077148438	974.2704467773438	314.729248046875	-595.14892578125	687.6385498046875	399.3866882324219	-603.4597778320312	766.8221435546875	334.6195068359375	-573.3311767578125	770.919921875	390.9225463867188	-776.4647216796875	1387.044799804688	712.067626953125	-792.769775390625	1320.963012695312	769.8460693359375	-774.986572265625	1057.592529296875	808.0553588867188	-794.4784545898438	1050.55859375	716.9063110351562	-641.969482421875	845.7666625976562	772.6521606445312	-680.1533813476562	832.6458740234375	833.8336181640625	-745.572509765625	993.4600830078125	822.9360961914062	-641.6243286132812	673.417236328125	768.3776245117188	-621.4849853515625	739.7993774414062	788.6130981445312	-673.6691284179688	743.5289306640625	831.2394409179688	-788.5411376953125	1605.124389648438	628.9006958007812	-621.5242919921875	1597.545288085938	519.7516479492188	-654.7367553710938	1609.08544921875	637.5869140625	-763.0962524414062	1588.188354492188	469.6428527832031	-754.5177612304688	971.229248046875	374.822021484375	-772.252197265625	962.7869262695312	738.6884155273438	-637.7421875	968.2504272460938	688.1363525390625	-641.4869384765625	967.0681762695312	425.0113220214844	-725.3922729492188	475.6661376953125	390.1790161132812	-726.7036743164062	618.9794311523438	382.0368041992188	-826.2122192382812	39.23323822021484	421.972412109375	-779.3294067382812	245.3880157470703	393.8332214355469	-617.5846557617188	43.38141632080078	501.4278259277344	-698.9913330078125	44.46578216552734	525.0414428710938	-698.0460815429688	40.94588470458984	419.1260986328125	-867.659423828125	36.29227828979492	476.8504943847656	-728.8909301757812	469.2348022460938	698.7192993164062	-689.8720092773438	730.6535034179688	731.1156005859375	-815.6130981445312	57.18235015869141	658.1103515625	-727.657470703125	341.8845825195312	679.9256591796875	-631.8566284179688	42.19285583496094	614.5650024414062	-702.3268432617188	44.13530349731445	575.1033935546875	-734.0425415039062	46.34412384033203	671.3580322265625	-884.20166015625	44.71307754516602	600.1823120117188	
146	1.45	-848.8329467773438	988.12353515625	620.8762817382812	-846.2703247070312	983.9727172851562	489.351806640625	-845.9066772460938	1058.81005859375	555.880615234375	-606.8878784179688	1212.285278320312	580.060302734375	-846.917236328125	1158.974487304688	551.4216918945312	-815.9144287109375	1409.205322265625	546.0902099609375	-659.872314453125	1331.536254882812	574.228271484375	-862.8995361328125	1262.035278320312	607.790283203125	-810.8609619140625	1372.1240234375	439.7594604492188	-716.3141479492188	1390.11181640625	405.12548828125	-717.4005737304688	1274.615600585938	329.5623168945312	-676.7637939453125	1078.119873046875	315.4425659179688	-749.529052734375	1053.687133789062	351.3340454101562	-600.35888671875	867.0020141601562	398.87646484375	-614.9969482421875	852.640380859375	319.0908813476562	-650.341552734375	974.3399658203125	314.9722595214844	-593.8310546875	687.7455444335938	399.5122985839844	-602.1171264648438	766.9735107421875	334.8346252441406	-572.189208984375	771.0732421875	391.1452026367188	-776.4254760742188	1386.893798828125	712.59765625	-792.9478759765625	1320.819702148438	770.3189697265625	-775.3663940429688	1057.466430664062	808.6063232421875	-794.4680786132812	1050.331909179688	717.4185791015625	-642.7437133789062	845.292236328125	774.021728515625	-681.2021484375	832.3540649414062	835.027099609375	-746.0897216796875	993.3461303710938	823.6859130859375	-642.8553466796875	672.9600830078125	769.9548950195312	-622.5465698242188	739.3184814453125	790.2101440429688	-675.0548706054688	743.2520751953125	832.5599975585938	-788.0809326171875	1605.056884765625	629.2451782226562	-620.9425659179688	1597.283081054688	520.293212890625	-654.2584838867188	1608.999633789062	638.0784301757812	-762.4705810546875	1587.9130859375	470.0543823242188	-753.4413452148438	971.209228515625	375.0660400390625	-772.2349853515625	962.4629516601562	739.1370239257812	-637.5211791992188	968.03369140625	688.91748046875	-640.8151245117188	967.0053100585938	425.7329406738281	-724.6790771484375	475.6314086914062	390.5509338378906	-726.0501098632812	618.9559326171875	382.4565734863281	-826.2862548828125	39.23605346679688	421.916259765625	-778.9302368164062	245.3663024902344	394.0148010253906	-617.6904296875	43.52552795410156	501.4114074707031	-699.0221557617188	44.47195434570312	525.0289306640625	-698.1034545898438	41.00416946411133	419.1191101074219	-867.7114868164062	36.25156784057617	476.8216552734375	-727.38916015625	468.87841796875	698.5032348632812	-689.291259765625	730.192626953125	731.4824829101562	-815.5969848632812	57.23027420043945	658.0878295898438	-726.4540405273438	341.4831848144531	679.6262817382812	-631.9125366210938	42.21012115478516	614.4708862304688	-702.3236694335938	44.10870742797852	574.9852294921875	-734.00048828125	46.4377555847168	671.2490234375	-884.2257690429688	44.69390869140625	600.1776123046875	
147	1.46	-848.5655517578125	987.8194580078125	621.2616577148438	-845.6146850585938	983.779052734375	489.711181640625	-845.6281127929688	1058.72119140625	556.1655883789062	-606.5764770507812	1212.06005859375	581.0743408203125	-846.6143798828125	1158.885986328125	551.7957153320312	-815.3721923828125	1409.071533203125	546.5543212890625	-659.488037109375	1331.332275390625	575.1146240234375	-862.6497192382812	1262.007080078125	608.107666015625	-810.0594482421875	1372.044677734375	440.2684326171875	-715.4620361328125	1389.986938476562	405.8645935058594	-716.5338745117188	1274.593139648438	330.1847534179688	-675.9583740234375	1078.124877929688	315.7708435058594	-748.7619018554688	1053.6494140625	351.6097106933594	-599.1992797851562	867.1719360351562	399.1565246582031	-613.734619140625	852.7897338867188	319.3849182128906	-649.3854370117188	974.4061889648438	315.2488403320312	-592.3826293945312	687.8839111328125	399.7321166992188	-600.6539916992188	767.1414794921875	335.1173706054688	-570.9320678710938	771.2719116210938	391.4472351074219	-776.3889770507812	1386.732177734375	713.1610107421875	-793.1123657226562	1320.666381835938	770.8300170898438	-775.733642578125	1057.323364257812	809.1912231445312	-794.4358520507812	1050.104614257812	717.9505004882812	-643.5675048828125	844.78173828125	775.4603881835938	-682.296875	832.0484008789062	836.2760620117188	-746.6297607421875	993.2161254882812	824.4745483398438	-644.1532592773438	672.4754028320312	771.6030883789062	-623.6559448242188	738.809814453125	791.8869018554688	-676.49560546875	742.946533203125	833.9387817382812	-787.5838012695312	1605.003540039062	629.6136474609375	-620.3189086914062	1596.990844726562	520.8671264648438	-653.7405395507812	1608.903686523438	638.59765625	-761.8038940429688	1587.61474609375	470.48681640625	-752.3204956054688	971.192138671875	375.3846435546875	-772.1812133789062	962.1188354492188	739.638427734375	-637.2030029296875	967.8009033203125	689.7467041015625	-640.085205078125	966.9459838867188	426.4967651367188	-723.8468017578125	475.5928649902344	390.9788208007812	-725.298828125	618.9336547851562	382.9281616210938	-826.3628540039062	39.22373199462891	421.8576354980469	-778.46630859375	245.3511352539062	394.2285461425781	-617.8360595703125	43.73652267456055	501.3666381835938	-699.0750732421875	44.48302841186523	525.0079956054688	-698.1749267578125	41.07070541381836	419.10498046875	-867.7911987304688	36.20682525634766	476.7741394042969	-725.8948974609375	468.5213623046875	698.3053588867188	-688.7306518554688	729.7353515625	731.9567260742188	-815.5885620117188	57.27316284179688	658.0673217773438	-725.2593994140625	341.0754699707031	679.3477783203125	-631.9678344726562	42.22688293457031	614.3709716796875	-702.32275390625	44.08327484130859	574.8656005859375	-733.9712524414062	46.52175140380859	671.1410522460938	-884.2603149414062	44.67171096801758	600.1813354492188	
148	1.47	-848.2384033203125	987.5066528320312	621.67822265625	-844.9158325195312	983.5730590820312	490.09130859375	-845.2716064453125	1058.615478515625	556.494140625	-606.2369384765625	1211.826049804688	582.1476440429688	-846.287353515625	1158.80029296875	552.2056274414062	-814.7967529296875	1408.941528320312	547.0603637695312	-659.0685424804688	1331.112670898438	576.0592041015625	-862.374755859375	1261.969116210938	608.4559326171875	-809.1976928710938	1371.957885742188	440.8180541992188	-714.5447387695312	1389.85205078125	406.6560363769531	-715.5987548828125	1274.563842773438	330.8565368652344	-675.098876953125	1078.125854492188	316.130126953125	-747.9380493164062	1053.611450195312	351.9139099121094	-597.9280395507812	867.3751220703125	399.488037109375	-612.3584594726562	852.9529418945312	319.7342529296875	-648.3594970703125	974.4724731445312	315.5614624023438	-590.7947387695312	688.0589599609375	400.0498046875	-599.0758056640625	767.3291625976562	335.4653930664062	-569.5430908203125	771.5214233398438	391.8280944824219	-776.3442993164062	1386.56689453125	713.7594604492188	-793.2582397460938	1320.509643554688	771.3782958984375	-776.08935546875	1057.166625976562	809.8119506835938	-794.386962890625	1049.89013671875	718.49951171875	-644.437744140625	844.2467651367188	776.9710693359375	-683.447021484375	831.7344360351562	837.5795288085938	-747.199951171875	993.0758056640625	825.3013305664062	-645.5084228515625	671.9725341796875	773.3135986328125	-624.8241577148438	738.2801513671875	793.6404418945312	-677.9903564453125	742.6163940429688	835.3681030273438	-787.0494995117188	1604.964599609375	630.0059814453125	-619.6510009765625	1596.673828125	521.4738159179688	-653.1840209960938	1608.800659179688	639.1455078125	-761.0927734375	1587.29638671875	470.943115234375	-751.1682739257812	971.177001953125	375.7824401855469	-772.09228515625	961.7578735351562	740.1974487304688	-636.7968139648438	967.5533447265625	690.6216430664062	-639.2966918945312	966.8927001953125	427.3027648925781	-722.8787231445312	475.547607421875	391.4725952148438	-724.4263916015625	618.91015625	383.4616394042969	-826.4396362304688	39.19342422485352	421.7970886230469	-777.9326782226562	245.3444976806641	394.4799194335938	-618.024169921875	44.02035903930664	501.2891235351562	-699.1552734375	44.49887466430664	524.9788208007812	-698.2604370117188	41.14358901977539	419.0831909179688	-867.9013061523438	36.1575927734375	476.70458984375	-724.4242553710938	468.1653137207031	698.13134765625	-688.1802978515625	729.284423828125	732.5116577148438	-815.5902709960938	57.30987548828125	658.0487060546875	-724.0846557617188	340.6646728515625	679.0934448242188	-632.0205688476562	42.24277496337891	614.2634887695312	-702.3277587890625	44.05803298950195	574.7468872070312	-733.9547729492188	46.59734344482422	671.0331420898438	-884.3058471679688	44.64425659179688	600.1951293945312	
